<?xml version="1.0" encoding="UTF-8"?>
<svg width="273px" height="462px" viewBox="0 0 273 462" version="1.1" xmlns="http://www.w3.org/2000/svg" xmlns:xlink="http://www.w3.org/1999/xlink">
    <!-- Generator: Sketch 48.2 (47327) - http://www.bohemiancoding.com/sketch -->
    <title>Untitled</title>
    <desc>Created with Sketch.</desc>
    <defs></defs>
    <g id="Page-1" stroke="none" stroke-width="1" fill="none" fill-rule="evenodd">
        <g id="Group-3">
            <g id="Group-2">
                <path d="M263,97.8827452 L263,134.905232 C266.09259,133.926532 269.418563,135.588486 270.480684,138.673111 L272.108525,143.400704 C273.187363,146.533877 271.521996,149.948387 268.388823,151.027225 L11.2077701,239.581763 C8.07459714,240.660601 4.66008766,238.995233 3.5812497,235.86206 L1.95340893,231.134467 C0.874570966,228.001294 2.53993851,224.586785 5.67311145,223.507947 L254,138.002142 L254,100.981694 L11.2077701,184.581763 C8.07459714,185.660601 4.66008766,183.995233 3.5812497,180.86206 L1.95340893,176.134467 C0.874570966,173.001294 2.53993851,169.586785 5.67311145,168.507947 L10,167.01808 L10,130.863363 C7.24118634,131.211667 4.5224181,129.595412 3.5812497,126.86206 L1.95340893,122.134467 C0.874570966,119.001294 2.53993851,115.586785 5.67311145,114.507947 L262.854164,25.9534089 C265.987337,24.874571 269.401846,26.5399385 270.480684,29.6731115 L272.108525,34.4007043 C273.187363,37.5338773 271.521996,40.9483868 268.388823,42.0272247 L19,127.898683 L19,163.919131 L262.854164,79.9534089 C265.987337,78.874571 269.401846,80.5399385 270.480684,83.6731115 L272.108525,88.4007043 C273.187363,91.5338773 271.521996,94.9483868 268.388823,96.0272247 L263,97.8827452 Z" id="Combined-Shape" fill="#2273AA"></path>
                <rect id="Rectangle" fill="#F4645F" transform="translate(93.537113, 39.291451) rotate(-19.000000) translate(-93.537113, -39.291451) " x="-2.46288743" y="30.7914507" width="192" height="17" rx="6"></rect>
                <path d="M168,247.152106 L168,341 C168,344.313708 165.313708,347 162,347 L157,347 C153.686292,347 151,344.313708 151,341 L151,242 C151,241.037531 151.22662,240.127992 151.629411,239.321832 C151.528909,236.74561 153.109791,234.299664 155.673111,233.417042 L261.571192,196.953409 C264.704365,195.874571 268.118874,197.539939 269.197712,200.673111 L270.825553,205.400704 C271.904391,208.533877 270.239023,211.948387 267.105851,213.027225 L168,247.152106 Z" id="Combined-Shape" fill="#F4645F"></path>
                <rect id="Rectangle-3" fill="#F4645F" x="85" y="236" width="17" height="111" rx="6"></rect>
            </g>
            <g id="Group" transform="translate(58.000000, 343.000000)" fill="#F7918F">
                <rect id="Rectangle-4" x="0" y="0" width="132" height="4"></rect>
                <rect id="Rectangle-4" fill-opacity="0.92" x="0" y="7" width="132" height="4"></rect>
                <rect id="Rectangle-4" fill-opacity="0.84" x="0" y="16" width="132" height="4"></rect>
                <rect id="Rectangle-4" fill-opacity="0.76" x="0" y="27" width="132" height="4"></rect>
                <rect id="Rectangle-4" fill-opacity="0.539911685" transform="translate(66.058939, 49.000999) rotate(-8.000000) translate(-66.058939, -49.000999) " x="0.0589394511" y="47.0009994" width="132" height="4"></rect>
                <rect id="Rectangle-4" fill-opacity="0.539911685" transform="translate(66.058939, 66.000999) rotate(-8.000000) translate(-66.058939, -66.000999) " x="0.0589394511" y="64.0009994" width="132" height="4"></rect>
                <rect id="Rectangle-4" fill-opacity="0.539911685" transform="translate(66.058939, 87.000999) rotate(-8.000000) translate(-66.058939, -87.000999) " x="0.0589394511" y="85.0009994" width="132" height="4"></rect>
                <rect id="Rectangle-4" fill-opacity="0.539911685" transform="translate(76.826946, 110.660845) rotate(-8.000000) translate(-76.826946, -110.660845) " x="32.8269457" y="108.660845" width="88" height="4"></rect>
            </g>
        </g>
    </g>
</svg>